<svg width="281" height="268" viewBox="0 0 281 268" fill="none" xmlns="http://www.w3.org/2000/svg">
<rect width="281" height="268" rx="20" fill="white"/>
<path d="M189.667 121.92V85.3333C189.667 76.35 182.317 69 173.333 69H75.3333C66.35 69 59 76.35 59 85.3333V183.333C59 192.317 66.35 199.667 75.3333 199.667H173.333C182.317 199.667 189.667 192.317 189.667 183.333V146.747L222.333 179.25V89.4167L189.667 121.92ZM140.667 134.333L165.167 148.462L157 162.59L132.5 148.462V175.167H116.167V148.462L91.6667 162.59L83.5 148.462L108 134.333L83.5 120.205L91.6667 106.077L116.167 120.205V93.5H132.5V120.205L157 106.077L165.167 120.205L140.667 134.333Z" fill="#18181B"/>
</svg>
